<?xml version="1.0" encoding="UTF-8"?>
<svg id="Layer_1" xmlns="http://www.w3.org/2000/svg" version="1.1" viewBox="0 0 608.75 260.76">
  <defs>
    <style>
      .st0 {
        stroke: currentColor;
        stroke-miterlimit: 10;
        stroke-width: .4px;
        fill: none;
      }
      .st1 {
        font-family: SignateGrotesk-Black, 'Signate Grotesk', 'Archivo', sans-serif;
        font-size: 71.12px;
        font-weight: 800;
        fill: currentColor;
      }
    </style>
  </defs>
  <text class="st1" transform="translate(201.87 210.45)"><tspan x="0" y="0">BLACK-MAK</tspan></text>
  <g>
    <polygon class="st0" points="472.23 .48 472.23 36.39 466.12 36.39 466.12 15.21 424.59 56.75 424.59 123.54 418.48 123.54 418.48 54.22 472.23 .48"/>
    <polygon class="st0" points="472.23 29.01 472.23 37.64 471.33 38.54 467.01 34.23 472.23 29.01"/>
    <path class="st0" d="M466.12,35.12l-7.57,7.57-2.7,2.69-17.71,17.71v60.44h34.09V46.1l-6.11,6.11v65.22h-21.88v-51.8l15.93-15.93,5.95-5.95,5.2-5.21.9-.9v-8.62l-6.11,6.11Z"/>
    <polygon class="st0" points="410.02 54.22 410.02 123.54 403.91 123.54 403.91 56.75 362.38 15.21 362.38 36.39 356.27 36.39 356.27 .48 410.02 54.22"/>
    <polygon class="st0" points="361.49 34.23 357.17 38.54 356.27 37.64 356.27 29.01 361.49 34.23"/>
    <path class="st0" d="M372.65,45.38l-2.7-2.69-7.57-7.57-6.11-6.11v8.62l.9.9,5.21,5.21,5.95,5.95,15.93,15.93v51.8h-21.88V52.21l-6.11-6.11v77.44h34.09v-60.44l-17.71-17.71Z"/>
    <rect class="st0" x="405.26" y="117.43" width="16.35" height="6.11"/>
  </g>
</svg>